PathFileType	3	(X/Y/Z)	C:\Users\koon_\Desktop\
DataRate	CameraRate	NumFrames	NumMarkers	Units	OrigDataRate	OrigDataStartFrame	OrigNumFrames
100.0	100.0	7	27	mm	100.0	2513	5024	
Frame#	Time	get:LFHD			get:RFHD			get:LBHD			get:RBHD			get:C7			get:T10			get:CLAV			get:STRN			get:RBAK			get:LSHO			get:LUPA			get:LELB			get:LFRA			get:LWRA			get:LWRB			get:LFIN			get:RSHO			get:RUPA			get:RELB			get:RFRA			get:RWRA			get:RWRB			get:RFIN			get:LASI			get:RASI			get:LPSI			get:RPSI			
		X1	Y1	Z1	X2	Y2	Z2	X3	Y3	Z3	X4	Y4	Z4	X5	Y5	Z5	X6	Y6	Z6	X7	Y7	Z7	X8	Y8	Z8	X9	Y9	Z9	X10	Y10	Z10	X11	Y11	Z11	X12	Y12	Z12	X13	Y13	Z13	X14	Y14	Z14	X15	Y15	Z15	X16	Y16	Z16	X17	Y17	Z17	X18	Y18	Z18	X19	Y19	Z19	X20	Y20	Z20	X21	Y21	Z21	X22	Y22	Z22	X23	Y23	Z23	X24	Y24	Z24	X25	Y25	Z25	X26	Y26	Z26	X27	Y27	Z27	
2513	25.12	52.041794	1533.8273	-8.1204224	-91.850746	1533.8516	-38.473896	79.250832	1532.3953	-143.10809	-70.239029	1527.1957	-171.23042	7.3190956	1336.2386	-206.31955	15.854376	1122.1478	-247.57602	-3.7177961	1230.7797	-16.974892	-7.2332926	1075.8644	16.567629	-82.858917	1261.54	-241.51263	160.93373	1330.7904	-117.04018	217.32056	1119.8787	-70.506699	251.8237	1005.7672	-131.24313	228.31952	950.15741	-51.979267	178.33647	787.01874	-19.404406	249.69469	781.10815	-42.113319	229.64326	715.27948	-4.1548758	-133.67137	1327.2883	-117.30019	-221.34595	1214.6123	-122.48164	-274.4985	1007.3159	-195.77017	-252.10353	912.72266	-61.75391	-229.33276	834.61078	-4.8602629	-273.76144	810.27454	-59.944782	-254.65494	764.74219	19.070929	134.47852	890.63135	-47.434349	-158.28491	907.93488	-60.208771	50.237045	928.51904	-235.42397	-37.337303	927.91742	-243.44186
2514	25.13	51.721462	1533.8406	-7.9849763	-91.941971	1533.6459	-39.402626	79.054451	1532.4086	-142.94487	-70.381012	1527.1807	-171.28212	7.7976403	1336.2961	-206.35597	16.5627	1122.2715	-247.63301	-3.9365561	1230.8245	-17.077028	-7.3802571	1075.9185	16.421616	-82.016571	1261.5321	-242.15877	160.91429	1331.2095	-116.39178	217.70917	1120.55	-69.701996	253.02184	1006.6178	-129.9967	228.75491	951.0708	-50.882858	178.54327	788.01355	-18.314159	250.1806	782.10693	-40.122215	229.60944	716.35571	-1.9510902	-133.4572	1327.0848	-118.21312	-222.21936	1215.1624	-124.94569	-277.27084	1008.8082	-199.1467	-255.74202	918.26434	-61.922516	-233.04985	842.03107	-2.2859027	-276.86877	815.84631	-56.929203	-257.60852	772.55511	23.54081	134.55853	890.69525	-47.212997	-158.23	908.03149	-60.546539	50.413567	928.52655	-235.57501	-37.141716	927.97144	-243.71864
2515	25.14	51.415234	1533.8531	-7.86239	-92.192642	1533.6318	-39.461369	78.75882	1532.4216	-142.84203	-70.545319	1527.1625	-171.23187	8.2472811	1336.3525	-206.35069	17.290871	1122.3967	-247.6297	-4.2135453	1230.8724	-17.129799	-7.5618906	1075.9427	16.271463	-81.190598	1261.4169	-242.53049	160.87599	1331.6106	-115.80706	217.99828	1121.1661	-68.802269	254.10577	1007.4369	-128.75414	229.16795	951.86786	-49.80024	178.41449	789.19788	-17.294529	250.62683	783.02307	-38.213585	229.45345	717.44879	0.020248868	-133.29767	1326.8378	-119.20107	-223.02968	1215.713	-127.43111	-280.0145	1010.2955	-202.66602	-259.43976	924.26489	-62.2864	-236.84274	850.20428	0.34839225	-280.07797	821.84271	-53.166695	-260.69846	781.16321	28.016514	134.59625	890.77063	-46.937351	-158.18275	908.16882	-60.898365	50.681103	928.55316	-235.71393	-36.931145	927.88019	-243.78041
2516	25.15	51.050404	1533.8408	-7.7395291	-92.530624	1533.6046	-39.495274	78.534813	1532.4476	-142.68875	-70.727692	1527.1749	-171.19392	8.7333632	1336.407	-206.33255	18.087919	1122.5356	-247.64378	-4.5343623	1230.9111	-17.272015	-7.7867808	1075.9769	16.052128	-80.280838	1261.3799	-243.20525	160.82825	1331.9744	-115.12283	218.367	1121.7347	-67.797302	255.15265	1008.1816	-127.67637	229.55225	952.58569	-48.791649	178.66225	789.88739	-16.59911	250.85921	783.89417	-36.472027	229.23904	718.41211	1.7132372	-133.1732	1326.6255	-120.18165	-223.67133	1216.0895	-130.70464	-282.65894	1011.8946	-206.41808	-263.26889	930.67743	-62.848637	-240.90318	859.04913	2.7615881	-283.41791	828.74213	-50.771324	-264.05048	790.58826	32.599873	134.58945	890.80835	-46.647125	-158.18118	908.2348	-61.34066	50.912315	928.54547	-235.87801	-36.723022	927.73248	-243.70815
2517	25.16	50.718182	1533.8392	-7.6326728	-92.936623	1533.799	-39.168652	78.331558	1532.4626	-142.56557	-70.895447	1527.2228	-171.30826	9.2650318	1336.4338	-206.25377	18.950111	1122.682	-247.65671	-4.8855577	1230.9584	-17.44236	-8.0672789	1075.9764	15.990747	-79.359497	1261.3134	-243.75945	160.76735	1332.2844	-114.4002	218.70892	1122.2277	-66.935524	256.12698	1008.816	-126.61762	229.8045	953.26849	-47.927708	178.41295	790.86218	-15.692666	251.07828	784.57184	-35.007862	228.86304	719.21686	3.186456	-133.11835	1326.4354	-121.29205	-224.36783	1216.6099	-133.4931	-285.2197	1013.5713	-210.23859	-267.22372	937.47723	-63.607239	-245.21783	868.54089	4.996973	-286.83771	835.88	-47.282482	-267.6185	800.84851	37.186588	134.54031	890.64923	-47.469734	-158.10643	908.28601	-61.759521	51.21793	928.55548	-235.96242	-36.455212	927.7179	-243.88344
2518	25.17	50.349041	1533.8312	-7.4813242	-93.297241	1533.7898	-39.263222	78.276756	1532.5299	-142.43497	-71.090416	1527.2594	-171.3638	9.8165436	1336.4614	-206.23938	19.795097	1122.8264	-247.64655	-5.2598157	1230.963	-17.616089	-8.3624067	1075.9938	15.818354	-78.362045	1261.1622	-244.3067	160.65266	1332.6165	-113.57257	218.98914	1122.6675	-65.952751	257.10855	1009.4266	-125.63467	230.12291	953.94916	-46.984905	178.30949	791.64307	-15.088854	251.17296	785.19769	-33.614765	228.38097	719.94098	4.4191232	-132.99599	1326.3201	-122.33689	-225.06259	1217.1532	-136.36009	-287.59637	1015.3984	-214.08842	-271.37564	944.69263	-65.179764	-249.72537	878.57147	7.0212021	-290.45251	843.56763	-44.617794	-271.30524	811.53717	41.409946	134.60303	890.86688	-46.392208	-158.1022	908.34351	-62.227875	51.558182	928.54993	-236.02518	-36.093529	927.70868	-244.07347
2519	25.18	49.969627	1533.7913	-7.3638883	-93.559822	1533.5704	-39.671902	77.880379	1532.4822	-142.32808	-71.267433	1527.2749	-171.38007	10.346713	1336.4691	-206.24884	20.663422	1122.9338	-247.6346	-5.7061272	1230.9828	-17.759789	-8.7182455	1075.9508	15.695318	-77.404236	1261.0287	-244.87759	160.61418	1332.9303	-112.76428	219.2661	1123.0602	-65.004883	257.89545	1009.9512	-124.55456	230.43956	954.46838	-46.195332	178.23044	792.30865	-14.425971	251.18512	785.66357	-32.505474	227.89189	720.46027	5.5063219	-132.84834	1326.2561	-123.42609	-225.6749	1217.9025	-139.0887	-289.83786	1017.2832	-217.84837	-275.25415	952.11115	-65.456116	-254.48906	888.8797	8.665266	-294.0835	851.63275	-42.028603	-275.29001	822.54126	45.07066	134.39653	890.38538	-47.851994	-158.02879	908.40594	-62.6838	51.941616	928.56555	-236.10779	-35.678066	927.75024	-244.33504
